HIERARCHY
ROOT root
{
  OFFSET 0.000000 0.000000 0.000000
  CHANNELS 6 Xposition Yposition Zposition Zrotation Yrotation Xrotation
  JOINT lhipjoint
  {
    OFFSET 0.000000 0.000000 0.000000
    CHANNELS 3 Zrotation Yrotation Xrotation
    JOINT lfemur
    {
      OFFSET 0.079867 -0.104186 0.044249
      CHANNELS 3 Zrotation Yrotation Xrotation
      JOINT ltibia
      {
        OFFSET 0.145649 -0.400168 0.000000
        CHANNELS 3 Zrotation Yrotation Xrotation
        JOINT lfoot
        {
          OFFSET 0.149419 -0.410526 0.000000
          CHANNELS 3 Zrotation Yrotation Xrotation
          JOINT ltoes
          {
            OFFSET 0.011694 -0.032129 0.124324
            CHANNELS 3 Zrotation Yrotation Xrotation
            End Site
            {
              OFFSET 0.000000 -0.000000 0.064484
            }
          }
        }
      }
    }
  }
  JOINT rhipjoint
  {
    OFFSET 0.000000 0.000000 0.000000
    CHANNELS 3 Zrotation Yrotation Xrotation
    JOINT rfemur
    {
      OFFSET -0.079333 -0.104186 0.044249
      CHANNELS 3 Zrotation Yrotation Xrotation
      JOINT rtibia
      {
        OFFSET -0.144821 -0.397891 0.000000
        CHANNELS 3 Zrotation Yrotation Xrotation
        JOINT rfoot
        {
          OFFSET -0.145612 -0.400066 0.000000
          CHANNELS 3 Zrotation Yrotation Xrotation
          JOINT rtoes
          {
            OFFSET -0.015073 -0.041413 0.124638
            CHANNELS 3 Zrotation Yrotation Xrotation
            End Site
            {
              OFFSET -0.000000 -0.000000 0.065614
            }
          }
        }
      }
    }
  }
  JOINT lowerback
  {
    OFFSET 0.000000 0.000000 0.000000
    CHANNELS 3 Zrotation Yrotation Xrotation
    JOINT upperback
    {
      OFFSET -0.002647 0.115822 -0.003961
      CHANNELS 3 Zrotation Yrotation Xrotation
      JOINT thorax
      {
        OFFSET 0.002306 0.115858 0.000451
        CHANNELS 3 Zrotation Yrotation Xrotation
        JOINT lowerneck
        {
          OFFSET 0.003530 0.115814 0.002237
          CHANNELS 3 Zrotation Yrotation Xrotation
          JOINT upperneck
          {
            OFFSET -0.002022 0.102161 0.010894
            CHANNELS 3 Zrotation Yrotation Xrotation
            JOINT head
            {
              OFFSET 0.000537 0.101710 -0.020540
              CHANNELS 3 Zrotation Yrotation Xrotation
              End Site
              {
                OFFSET 0.000222 0.104457 -0.008181
              }
            }
          }
        }
        JOINT lclavicle
        {
          OFFSET 0.003530 0.115814 0.002237
          CHANNELS 3 Zrotation Yrotation Xrotation
          JOINT lhumerus
          {
            OFFSET 0.200504 0.078867 -0.007715
            CHANNELS 3 Zrotation Yrotation Xrotation
            JOINT lradius
            {
              OFFSET 0.290411 -0.000000 -0.000000
              CHANNELS 3 Zrotation Yrotation Xrotation
              JOINT lwrist
              {
                OFFSET 0.197920 -0.000000 0.000000
                CHANNELS 3 Zrotation Yrotation Xrotation
                End Site
                {
                  OFFSET 0.098960 -0.000000 0.000000
                }
              }
            }
          }
        }
        JOINT rclavicle
        {
          OFFSET 0.003530 0.115814 0.002237
          CHANNELS 3 Zrotation Yrotation Xrotation
          JOINT rhumerus
          {
            OFFSET -0.172984 0.091039 -0.016263
            CHANNELS 3 Zrotation Yrotation Xrotation
            JOINT rradius
            {
              OFFSET -0.295317 -0.000000 -0.000000
              CHANNELS 3 Zrotation Yrotation Xrotation
              JOINT rwrist
              {
                OFFSET -0.206384 -0.000000 0.000000
                CHANNELS 3 Zrotation Yrotation Xrotation
                End Site
                {
                  OFFSET -0.103192 -0.000000 0.000000
                }
              }
            }
          }
        }
      }
    }
  }
}
MOTION
Frames: 17
Frame Time: 0.04166667
0.00000 0.76329 0.00000 -26.23910 -85.50890 49.50580 0.00000 -0.00000 0.00000 -5.97017 3.75681 -90.18794 22.90335 19.79668 98.51654 -3.16369 -33.48510 -4.12873 1.47838 7.68260 21.75409 0.00000 -0.00000 0.00000 6.70070 -17.96925 -90.45616 -26.96307 -18.79546 110.75983 -0.02723 -0.38819 3.00218 -0.52350 -4.63691 12.87579 2.12114 -3.32626 54.27390 0.43995 -4.93560 12.19350 1.72811 -3.08245 -7.36390 -13.14660 -10.68870 3.37136 22.93840 -13.85260 -8.74289 9.12599 -7.57131 -0.39158 0.00000 -0.00000 0.00000 -72.89216 -10.34196 19.51619 142.76128 -46.34613 -103.58747 -0.00000 -0.00000 4.73246 0.00000 -0.00000 0.00000 87.03164 0.77062 26.65591 -27.93500 39.05633 -10.08270 0.00000 -0.00000 -10.71470
0.00000 0.76399 0.00000 -25.58810 -86.86710 49.38970 0.00000 -0.00000 0.00000 2.40635 2.18119 -80.28893 20.58007 19.99193 91.69624 1.81778 -20.53087 -26.34047 0.12896 -2.31481 -6.37652 0.00000 -0.00000 0.00000 -4.02229 -14.63171 -84.41016 -19.94107 -19.99992 89.82771 0.38591 -12.09100 -9.97992 -0.68779 -5.30207 14.77216 1.45672 -2.08507 52.57500 1.13094 -3.60839 11.36670 2.21654 -2.46332 -8.09676 -11.70830 -11.96350 2.70164 21.97860 -15.27410 -11.12240 8.55132 -8.39109 -0.90984 0.00000 -0.00000 0.00000 -74.63061 -12.98248 27.52991 139.98126 -48.08099 -101.54682 -0.00000 -0.00000 8.76443 0.00000 -0.00000 0.00000 83.88707 4.30171 19.65964 -24.72533 35.92192 -8.12821 0.00000 -0.00000 -7.08066
0.00000 0.75335 0.00000 89.41860 -87.34250 -65.06390 0.00000 -0.00000 0.00000 8.06890 4.87804 -74.02759 18.70910 19.96000 86.22323 0.91304 -22.37464 -21.85154 1.33139 -7.30669 -20.62720 0.00000 -0.00000 0.00000 -8.76161 -15.19092 -84.44456 -13.38570 -18.91702 70.31928 1.78911 -23.64177 -2.54243 -0.15334 -2.52326 6.95413 -0.09448 -1.49028 47.74130 -0.34720 -3.63572 11.67220 1.37442 -2.30611 -8.43684 -10.57590 -13.04130 2.55041 22.51770 -16.30470 -15.36900 8.70416 -9.23556 -1.97539 -0.00000 0.00000 0.00000 -77.47402 -16.19733 28.07092 122.61976 -55.57045 -87.82942 -0.00000 -0.00000 13.99020 -0.00000 0.00000 0.00000 81.46396 2.81875 14.59102 -28.17940 39.28086 -10.23707 0.00000 -0.00000 -10.18370
0.00000 0.75023 0.00000 119.89500 -80.33330 -99.21670 0.00000 -0.00000 0.00000 8.52852 4.68231 -57.16391 14.64037 19.29688 74.15098 1.38087 -16.51864 -22.47272 3.10836 -10.86844 -31.83746 0.00000 -0.00000 0.00000 -7.46494 -16.52062 -90.07905 -16.52479 -19.70795 79.79148 0.88512 -16.55771 -8.79170 -0.87967 5.97923 -16.72418 -2.14465 -1.69123 47.09890 -2.86337 -5.08240 10.49590 0.38314 -2.82529 -9.71817 -10.82950 -13.21210 1.64698 22.25740 -16.42230 -18.13250 8.76856 -9.39361 -2.61448 -0.00000 -0.00000 0.00000 -80.17177 -16.45850 24.42225 92.86940 -59.96887 -62.48471 -0.00000 -0.00000 10.24530 -0.00000 -0.00000 0.00000 75.61349 3.59790 11.18351 -27.28328 38.44800 -9.67475 0.00000 -0.00000 -3.84107
0.00000 0.75801 0.00000 136.31800 -74.01780 -117.56600 0.00000 -0.00000 0.00000 11.55409 -1.94147 -38.06853 10.55916 17.71252 61.34143 0.75269 -4.19874 -15.51095 4.12035 -12.31885 -36.86947 0.00000 -0.00000 0.00000 -3.15403 -11.55422 -91.27939 -20.07094 -19.99988 90.20741 -0.23087 -10.66938 -18.27943 -0.86657 5.93569 -16.59793 -3.51921 -1.51409 45.42360 -4.33354 -5.62534 8.79400 -0.22454 -2.95234 -11.30330 -10.83360 -12.69740 -0.55466 22.52540 -15.56650 -20.78040 8.93674 -9.09494 -3.13509 0.00000 0.00000 0.00000 -83.55058 -9.58770 20.86443 91.08550 -59.99555 -60.94006 -0.00000 -0.00000 9.66502 0.00000 0.00000 0.00000 67.58774 10.65712 5.75281 -24.89818 36.09974 -8.22984 0.00000 -0.00000 -3.19613
0.00000 0.77712 0.00000 141.06300 -64.14880 -123.38000 0.00000 -0.00000 0.00000 6.83122 -17.88481 -18.39663 6.82852 15.18578 48.22278 -0.15305 12.18862 6.25964 3.42250 -11.34947 -33.46776 0.00000 -0.00000 0.00000 0.33784 -9.80222 -88.84515 -21.65481 -19.93422 94.84343 -1.84192 -4.19240 -27.42128 -1.13470 6.76520 -19.02160 -5.24433 -1.22775 41.71410 -6.35659 -6.13398 7.00567 -1.33107 -3.07635 -12.38680 -12.09630 -12.25690 -2.52003 21.56780 -15.07730 -21.21140 8.74956 -8.66198 -3.02158 -0.00000 -0.00000 0.00000 -86.70397 -3.18844 20.46889 95.09511 -59.90168 -64.41104 -0.00000 -0.00000 7.64712 -0.00000 -0.00000 0.00000 58.23621 19.12616 0.83292 -25.65056 36.86156 -8.67718 0.00000 -0.00000 -4.44428
0.00000 0.80331 0.00000 147.77500 -54.31210 -132.45700 0.00000 -0.00000 0.00000 -4.28642 -27.79481 -5.67640 6.55458 14.94504 47.16884 2.38650 -7.02175 32.33181 0.69094 5.31394 14.80618 0.00000 -0.00000 0.00000 6.07726 -7.69433 -79.86160 -21.48069 -19.94735 94.33290 -3.40375 -1.64306 -35.55509 -1.21958 7.00483 -19.72968 -6.11543 -0.04929 41.16040 -7.03874 -5.27491 4.69331 -1.98270 -2.55968 -14.92450 -14.09230 -11.63800 -4.67040 18.79660 -14.50600 -20.73010 8.07106 -7.98210 -2.79188 0.00000 0.00000 0.00000 -87.87580 4.53401 19.32767 94.28361 -59.93055 -63.70885 -0.00000 -0.00000 3.98161 0.00000 0.00000 0.00000 48.27388 28.65474 0.34174 -31.44746 42.10221 -12.36878 0.00000 -0.00000 -5.23128
0.00000 0.83275 0.00000 154.86900 -46.71700 -134.38100 0.00000 -0.00000 0.00000 -6.86773 -21.63271 -18.94524 11.65254 18.23988 64.88316 1.85963 -3.91223 27.40561 0.51063 4.58041 12.71557 0.00000 -0.00000 0.00000 12.58075 -4.31445 -74.60550 -20.20568 -19.99899 90.60136 -3.67789 0.70187 -36.23206 -2.09286 9.05689 -25.97345 -5.25279 0.03565 33.89080 -6.82018 -3.89208 2.39637 -2.88445 -1.90338 -15.02070 -12.67820 -10.80930 -8.08756 16.07220 -13.61330 -20.59000 6.88928 -7.46315 -2.75520 0.00000 -0.00000 0.00000 -84.61291 12.23017 16.25116 86.32857 -59.94900 -56.82100 -0.00000 -0.00000 5.93698 0.00000 -0.00000 0.00000 40.02468 39.90913 1.10247 -44.52581 50.53405 -21.87206 0.00000 -0.00000 -3.51703
0.00000 0.86637 0.00000 159.75900 -40.35490 -136.22600 0.00000 -0.00000 0.00000 -9.19349 -14.49686 -34.65209 17.22257 19.81403 81.85512 0.54469 -3.88052 15.89862 1.30035 7.22436 20.38178 0.00000 -0.00000 0.00000 17.13450 -3.26957 -63.57826 -17.39381 -19.83637 82.36002 -3.15492 7.86284 -32.20710 -2.17486 9.22118 -26.48968 -5.60229 1.06998 29.25220 -6.56626 -2.12913 0.77139 -3.20340 -1.04343 -14.78090 -10.76130 -10.02750 -9.83576 14.67010 -12.82180 -20.69110 6.14422 -7.14589 -2.88819 0.00000 -0.00000 0.00000 -80.52440 20.26682 13.36461 75.21260 -59.15742 -47.22997 -0.00000 -0.00000 2.51555 0.00000 -0.00000 0.00000 35.99495 46.71917 2.30532 -68.17014 58.12050 -41.21409 0.00000 -0.00000 -4.40462
0.00000 0.89427 0.00000 163.87100 -38.04110 -139.47900 0.00000 -0.00000 0.00000 -9.64928 -12.26134 -49.71009 20.50811 19.99381 91.48577 -0.64981 -14.33271 8.05442 0.09263 1.96291 5.40317 0.00000 -0.00000 0.00000 23.38849 -6.47118 -46.65698 -12.51247 -18.59899 67.60424 -1.99231 12.94936 -25.59464 -2.21546 9.30114 -26.74194 -5.42392 1.35264 25.96170 -5.90500 -1.21736 -0.05674 -3.24285 -0.63070 -14.78850 -9.00744 -9.40724 -9.04229 14.96400 -12.09020 -20.28530 6.02306 -6.89570 -3.04147 0.00000 -0.00000 0.00000 -77.13160 34.04743 14.04827 78.88224 -59.52776 -50.38701 -0.00000 0.00000 -0.79915 0.00000 -0.00000 0.00000 44.03368 48.51455 11.21056 -93.89270 59.94266 -63.37053 0.00000 -0.00000 -5.57861
0.00000 0.91753 0.00000 168.32100 -38.35410 -144.57300 0.00000 -0.00000 0.00000 -8.80906 -13.10603 -60.97733 20.43432 19.99548 91.26997 -1.35990 -20.43150 3.84973 0.29699 3.50420 9.68579 0.00000 -0.00000 0.00000 28.56143 -9.39716 -23.40663 -5.95126 -14.38095 44.78581 0.40551 11.30401 2.54434 -0.65042 5.15887 -14.36224 -5.66290 1.75600 21.92330 -4.52764 -0.02007 0.23562 -1.81439 0.02269 -12.12300 -8.39490 -9.80300 -8.79861 15.91080 -12.54120 -18.76150 6.10437 -7.11389 -2.51589 0.00000 -0.00000 0.00000 -75.34549 44.94287 18.45594 89.35542 -59.99843 -59.44178 -0.00000 0.00000 -2.47421 0.00000 -0.00000 0.00000 53.96180 44.73191 21.20832 -109.38798 58.53092 -76.70766 0.00000 0.00000 0.50845
0.00000 0.93379 0.00000 173.14500 -38.67930 -147.39100 0.00000 -0.00000 0.00000 -8.52347 -15.70501 -72.31895 17.50312 19.84986 82.68204 -1.08933 -18.44317 3.11612 1.46186 7.64144 21.63020 0.00000 -0.00000 0.00000 33.28907 -4.85899 0.48648 -0.89905 -6.04297 16.90916 -3.74531 -5.65108 35.52619 -0.22359 -3.04378 8.40067 -4.51757 1.96905 14.55430 -2.85112 1.47108 0.19918 -0.79900 0.76543 -8.01906 -7.63160 -10.25480 -9.30268 13.88300 -13.28020 -15.88610 5.16166 -7.24538 -1.73576 0.00000 0.00000 0.00000 -78.54953 49.93700 19.21824 97.77070 -59.77060 -66.72444 -0.00000 0.00000 -6.22009 0.00000 0.00000 0.00000 60.08317 37.96264 28.30206 -106.70644 58.91868 -74.41567 0.00000 -0.00000 -3.58257
0.00000 0.94879 0.00000 174.96500 -37.44380 -148.89100 0.00000 -0.00000 0.00000 -12.25504 -19.36657 -76.07677 10.63184 17.75016 61.58007 -0.55616 -13.09369 4.13792 3.18816 10.99359 32.25825 0.00000 -0.00000 0.00000 34.48024 -6.24828 13.03431 -0.33465 -3.71769 10.28374 -2.03380 -11.92103 25.73779 -0.96103 6.24208 -17.48844 -2.45835 2.52707 12.58430 -2.79542 2.69658 -0.11906 -2.07084 1.30920 -7.17517 -7.74606 -10.82180 -9.28023 13.62770 -14.02170 -15.22790 5.02519 -7.55220 -1.48744 0.00000 0.00000 0.00000 -84.50282 49.38682 17.06627 106.87255 -58.89651 -74.55791 -0.00000 0.00000 -8.33983 0.00000 0.00000 0.00000 65.96226 30.98442 30.56838 -89.16644 59.99737 -59.27813 0.00000 -0.00000 -2.43181
0.00000 0.95685 0.00000 178.06000 -31.20090 -153.10100 0.00000 -0.00000 0.00000 -14.70222 -18.04725 -72.65617 4.54922 12.85743 38.83709 0.51945 -7.96550 18.78757 3.63244 11.65453 34.52054 0.00000 -0.00000 0.00000 32.22119 -5.14032 10.60124 -3.69924 -11.74905 34.84992 -2.44791 -4.57886 28.55952 -0.68751 5.30101 -14.76912 -1.24083 4.64480 14.81620 -3.04960 5.57673 0.08760 -3.74927 2.63471 -8.01398 -7.98558 -10.72150 -9.66474 13.38150 -13.92180 -16.06970 5.01893 -7.53040 -1.69985 -0.00000 -0.00000 0.00000 -90.49090 43.99785 14.75575 110.85392 -58.29127 -77.95641 -0.00000 0.00000 -9.23528 -0.00000 -0.00000 0.00000 72.74400 25.57410 29.89601 -63.40562 57.15118 -37.18886 0.00000 -0.00000 -3.35829
0.00000 0.94157 0.00000 -177.50100 -25.03360 -158.23200 0.00000 -0.00000 0.00000 -10.78743 -15.75278 -70.36705 4.52990 12.83399 38.75019 0.94500 -9.14598 23.83184 4.60793 12.92819 39.10024 0.00000 -0.00000 0.00000 31.61888 -2.49331 6.40226 -11.11229 -17.98960 63.14570 -1.32034 -6.37715 20.55729 -0.95607 6.22639 -17.44271 0.09687 6.17514 14.13430 -1.48017 7.99223 0.59327 -3.19338 3.82121 -7.01554 -8.15695 -9.57590 -9.24103 10.90110 -12.54400 -15.19150 4.38641 -6.70739 -1.83471 -0.00000 0.00000 0.00000 -96.31983 37.24697 13.13176 111.95562 -58.09783 -78.89269 -0.00000 0.00000 -8.78275 -0.00000 0.00000 0.00000 77.23144 21.56395 28.65355 -36.86175 46.09669 -16.14035 0.00000 -0.00000 -8.36262
0.00000 0.91999 0.00000 174.66800 -24.74050 -160.36400 0.00000 -0.00000 0.00000 -15.31664 -21.35970 -63.94040 9.44553 17.08603 57.61853 -0.33457 -12.75550 -3.52404 0.01313 0.73999 2.03364 0.00000 -0.00000 0.00000 20.79397 -8.62525 -2.80879 -19.87563 -19.99963 89.63637 -0.29594 -6.08527 9.94578 -0.85607 5.90054 -16.49611 -4.66371 5.00597 19.52770 -2.62397 5.04019 0.66708 -1.64723 2.42702 -10.38930 -7.82731 -9.02866 -9.05816 9.94833 -11.79490 -12.18070 4.35655 -6.17189 -1.26786 0.00000 -0.00000 0.00000 -93.38637 30.78801 18.44010 113.99261 -57.70907 -80.61840 -0.00000 0.00000 -10.63120 0.00000 -0.00000 0.00000 83.47682 13.32424 22.11599 -22.22722 33.23286 -6.70994 0.00000 -0.00000 -4.39418
0.00000 0.91754 0.00000 170.95100 -23.14110 -159.36300 0.00000 -0.00000 0.00000 -20.58254 -17.96215 -57.94160 11.95117 18.36993 65.83395 0.05310 -17.28129 -12.65189 0.00250 0.32321 0.88805 0.00000 -0.00000 0.00000 14.26895 -7.25745 -21.82514 -25.82137 -19.16732 107.25073 -0.01310 0.59854 2.47064 -0.66117 5.20051 -14.48133 -5.97828 4.06779 19.03890 -3.24602 3.43956 0.54120 -1.10607 1.70430 -10.27510 -8.52110 -8.84910 -12.51120 9.13950 -11.33260 -9.26594 3.94424 -5.80326 0.22941 -0.00000 0.00000 0.00000 -87.02398 21.06434 26.41115 114.98221 -57.50517 -81.45402 -0.00000 0.00000 -8.79903 -0.00000 0.00000 0.00000 86.91431 2.07822 12.16538 -17.48765 27.49615 -4.31007 0.00000 -0.00000 -5.58291
